<?xml version="1.0" encoding="iso-8859-1"?>
<!-- Generator: Adobe Illustrator 19.0.0, SVG Export Plug-In . SVG Version: 6.00 Build 0)  -->
<svg version="1.1" id="Layer_1" xmlns="http://www.w3.org/2000/svg" xmlns:xlink="http://www.w3.org/1999/xlink" x="0px" y="0px"
	 viewBox="0 0 489.142 489.142" style="enable-background:new 0 0 489.142 489.142;" xml:space="preserve">
<g>
	<path style="fill:#46F8FF;" d="M250.071,309.389c0.267-0.712,0.546-1.417,0.836-2.117
		C250.617,307.972,250.338,308.677,250.071,309.389z"/>
	<path style="fill:#46F8FF;" d="M289.284,395.064c-0.406-0.151-0.804-0.318-1.206-0.477
		C288.48,394.746,288.878,394.913,289.284,395.064z"/>
	<path style="fill:#46F8FF;" d="M251.334,306.269c0.253-0.584,0.517-1.162,0.786-1.737
		C251.851,305.107,251.588,305.685,251.334,306.269z"/>
	<path style="fill:#46F8FF;" d="M301.477,398.297c-0.68-0.113-1.358-0.23-2.03-0.364
		C300.12,398.067,300.798,398.185,301.477,398.297z"/>
	<path style="fill:#46F8FF;" d="M292.184,396.061c-0.515-0.165-1.024-0.343-1.534-0.52
		C291.16,395.718,291.669,395.897,292.184,396.061z"/>
	<path style="fill:#46F8FF;" d="M248.985,312.521c0.264-0.829,0.541-1.651,0.836-2.466
		C249.525,310.87,249.249,311.693,248.985,312.521z"/>
	<path style="fill:#46F8FF;" d="M298.234,397.677c-0.598-0.13-1.194-0.267-1.786-0.413
		C297.041,397.41,297.636,397.546,298.234,397.677z"/>
	<path style="fill:#46F8FF;" d="M295.162,396.933c-0.553-0.148-1.102-0.307-1.65-0.469
		C294.06,396.626,294.609,396.784,295.162,396.933z"/>
	<path style="fill:#46F8FF;" d="M282.251,391.96c-0.266-0.136-0.532-0.269-0.796-0.408
		C281.718,391.691,281.985,391.824,282.251,391.96z"/>
	<path style="fill:#46F8FF;" d="M279.643,390.556c-0.221-0.126-0.442-0.253-0.661-0.381
		C279.201,390.303,279.422,390.43,279.643,390.556z"/>
	<path style="fill:#46F8FF;" d="M305.596,398.863c0.435,0.044,0.878,0.064,1.315,0.1c-1.482-0.122-2.958-0.277-4.414-0.495
		C303.523,398.622,304.555,398.757,305.596,398.863z"/>
	<path style="fill:#46F8FF;" d="M248.093,315.58c0.194-0.727,0.399-1.45,0.617-2.167
		C248.492,314.131,248.287,314.853,248.093,315.58z"/>
	<path style="fill:#46F8FF;" d="M259.756,373.303c-0.095-0.123-0.194-0.243-0.288-0.367
		C259.562,373.059,259.661,373.18,259.756,373.303z"/>
	<path style="fill:#46F8FF;" d="M284.883,393.231c-0.28-0.127-0.562-0.249-0.84-0.38
		C284.321,392.982,284.604,393.103,284.883,393.231z"/>
	<path style="fill:#46F8FF;" d="M246.71,322.08c0.125-0.775,0.263-1.546,0.414-2.311C246.972,320.534,246.834,321.305,246.71,322.08
		z"/>
	<path style="fill:#46F8FF;" d="M247.269,319.03c0.196-0.938,0.411-1.869,0.646-2.792
		C247.679,317.161,247.465,318.092,247.269,319.03z"/>
	<path style="fill:#46F8FF;" d="M245.976,328.825c0.049-0.863,0.114-1.721,0.196-2.575
		C246.09,327.103,246.026,327.962,245.976,328.825z"/>
	<path style="fill:#46F8FF;" d="M246.216,325.761c0.102-0.987,0.23-1.967,0.375-2.941
		C246.445,323.793,246.318,324.773,246.216,325.761z"/>
	<path style="fill:#46F8FF;" d="M277.101,389.038c-0.137-0.086-0.271-0.174-0.407-0.261
		C276.829,388.864,276.964,388.953,277.101,389.038z"/>
	<path style="fill:#46F8FF;" d="M312.389,399.208c-0.953,0-1.898-0.032-2.842-0.072C310.489,399.18,311.436,399.208,312.389,399.208
		z"/>
	<path style="fill:#46F8FF;" d="M253.117,302.5c-0.196,0.383-0.396,0.764-0.585,1.152
		C252.721,303.263,252.926,302.884,253.117,302.5z"/>
	<path style="fill:#46F8FF;" d="M302.653,266.861c0.831-0.122,1.667-0.228,2.507-0.32
		C304.32,266.633,303.484,266.738,302.653,266.861z"/>
	<path style="fill:#46F8FF;" d="M245.934,329.611c-0.044,0.958-0.073,1.92-0.075,2.889
		C245.863,331.532,245.891,330.57,245.934,329.611z"/>
	<path style="fill:#46F8FF;" d="M305.862,266.466c0.947-0.093,1.899-0.166,2.857-0.218
		C307.761,266.3,306.808,266.372,305.862,266.466z"/>
	<path style="fill:#46F8FF;" d="M190.285,332.5h15.574c0.017-10.416,1.544-20.482,4.36-30h-19.934V332.5z"/>
	<path style="fill:#46F8FF;" d="M190.285,262.5h42.019c5.537-6.311,11.805-11.966,18.672-16.828
		c7.698-5.45,16.151-9.9,25.164-13.172h-85.855V262.5z"/>
	<path style="fill:#46F8FF;" d="M264.87,379.178c0.022,0.023,0.043,0.047,0.065,0.07c0.145,0.148,0.283,0.304,0.43,0.451
		s0.303,0.284,0.451,0.43c0.152,0.149,0.308,0.293,0.461,0.44C265.819,380.127,265.339,379.658,264.87,379.178z"/>
	<path style="fill:#46F8FF;" d="M312.389,266.142c-1.025,0-2.042,0.031-3.055,0.078
		C310.347,266.173,311.364,266.142,312.389,266.142z"/>
	<path style="fill:#46F8FF;" d="M290.285,192.5v35.966c7.135-1.512,14.525-2.324,22.104-2.324c17.218,0,33.489,4.117,47.896,11.402
		V111.716H248.569V0h-58.284l0,192.5H290.285z"/>
	<path style="fill:#46F8FF;" d="M299.584,267.391c0.785-0.154,1.574-0.298,2.369-0.424
		C301.158,267.093,300.369,267.237,299.584,267.391z"/>
	<path style="fill:#46F8FF;" d="M290.417,269.887c0.32-0.112,0.642-0.219,0.964-0.327
		C291.059,269.668,290.737,269.774,290.417,269.887z"/>
	<path style="fill:#46F8FF;" d="M217.247,380.568c-1.329-2.629-2.549-5.321-3.661-8.068h-23.302l0,82.5h170v-27.202
		c-14.409,7.286-30.677,11.409-47.896,11.409C270.862,439.208,234.813,415.321,217.247,380.568z"/>
	<path style="fill:#46F8FF;" d="M296.229,268.136c0.767-0.192,1.538-0.371,2.315-0.536
		C297.767,267.766,296.995,267.944,296.229,268.136z"/>
	<path style="fill:#46F8FF;" d="M293.634,268.851c0.445-0.131,0.891-0.259,1.339-0.381
		C294.525,268.592,294.079,268.72,293.634,268.851z"/>
	<polygon style="fill:#9BFBFF;" points="90.285,372.5 90.285,332.5 190.285,332.5 190.285,302.5 90.285,302.5 90.285,262.5 
		190.285,262.5 190.285,232.5 90.285,232.5 90.285,192.5 190.285,192.5 190.285,0 20.285,0 20.285,455 190.285,455 190.285,372.5 	
		"/>
	<polygon style="fill:#00D7DF;" points="360.285,111.716 248.569,0 248.569,111.716 	"/>
	<path style="fill:#005ECE;" d="M90.285,192.5v40H276.14c4.577-1.662,9.303-3.008,14.145-4.034V192.5H90.285z"/>
	<path style="fill:#005ECE;" d="M245.861,332.5c-0.002,0.058-0.005,0.116-0.005,0.175c0,0.957,0.027,1.908,0.073,2.854
		c-0.04-0.947-0.072-1.897-0.072-2.854C245.856,332.616,245.861,332.558,245.861,332.5z"/>
	<path style="fill:#005ECE;" d="M252.315,361.246c-0.27-0.566-0.522-1.141-0.777-1.716
		C251.793,360.105,252.045,360.681,252.315,361.246z"/>
	<path style="fill:#005ECE;" d="M249.579,354.581c-0.192-0.55-0.383-1.1-0.561-1.656
		C249.196,353.482,249.387,354.032,249.579,354.581z"/>
	<path style="fill:#005ECE;" d="M248.631,351.66c-0.171-0.573-0.336-1.148-0.492-1.728
		C248.295,350.511,248.46,351.087,248.631,351.66z"/>
	<path style="fill:#005ECE;" d="M258.231,371.247c-0.171-0.24-0.344-0.478-0.512-0.72
		C257.887,370.77,258.059,371.008,258.231,371.247z"/>
	<path style="fill:#005ECE;" d="M255.102,366.453c-0.195-0.33-0.384-0.664-0.574-0.997
		C254.718,365.789,254.907,366.123,255.102,366.453z"/>
	<path style="fill:#005ECE;" d="M247.817,348.688c-0.152-0.613-0.293-1.231-0.428-1.851
		C247.524,347.458,247.665,348.075,247.817,348.688z"/>
	<path style="fill:#005ECE;" d="M256.635,368.914c-0.19-0.291-0.378-0.584-0.563-0.878
		C256.258,368.33,256.445,368.623,256.635,368.914z"/>
	<path style="fill:#005ECE;" d="M253.658,363.892c-0.196-0.367-0.381-0.741-0.57-1.112
		C253.277,363.151,253.461,363.525,253.658,363.892z"/>
	<path style="fill:#005ECE;" d="M250.674,357.486c-0.22-0.546-0.443-1.091-0.649-1.644
		C250.231,356.395,250.453,356.94,250.674,357.486z"/>
	<path style="fill:#005ECE;" d="M246.1,338.153c0.036,0.438,0.056,0.88,0.1,1.315c0.107,1.05,0.244,2.092,0.399,3.128
		C246.377,341.115,246.219,339.615,246.1,338.153z"/>
	<path style="fill:#005ECE;" d="M247.139,345.667c-0.139-0.697-0.26-1.4-0.377-2.105C246.879,344.267,247,344.97,247.139,345.667z"
		/>
	<path style="fill:#005ECE;" d="M90.285,332.5v40h123.302c-4.981-12.309-7.731-25.752-7.731-39.826c0-0.058,0.003-0.116,0.003-0.174
		H90.285z"/>
	<path style="fill:#005ECE;" d="M253.687,301.4c-0.195,0.364-0.381,0.732-0.57,1.1C253.31,302.133,253.492,301.763,253.687,301.4z"
		/>
	<path style="fill:#005ECE;" d="M279.672,274.777c0.021-0.012,0.041-0.024,0.062-0.036
		C279.713,274.753,279.692,274.765,279.672,274.777z"/>
	<path style="fill:#005ECE;" d="M281.69,273.677c0.007-0.003,0.029-0.014,0.051-0.026
		C281.724,273.66,281.706,273.668,281.69,273.677z"/>
	<path style="fill:#005ECE;" d="M263.806,287.286c0.159-0.17,0.321-0.337,0.482-0.505
		C264.127,286.949,263.965,287.116,263.806,287.286z"/>
	<path style="fill:#005ECE;" d="M273.897,278.459c0.085-0.06,0.169-0.121,0.255-0.181
		C274.066,278.338,273.982,278.398,273.897,278.459z"/>
	<path style="fill:#005ECE;" d="M288.736,270.502c0.026-0.01,0.053-0.021,0.079-0.031
		C288.788,270.481,288.762,270.492,288.736,270.502z"/>
	<path style="fill:#005ECE;" d="M268.611,282.637c0.124-0.109,0.25-0.217,0.375-0.325
		C268.861,282.42,268.736,282.528,268.611,282.637z"/>
	<path style="fill:#005ECE;" d="M284.972,272.078c0.129-0.059,0.258-0.118,0.388-0.176
		C285.231,271.96,285.102,272.019,284.972,272.078z"/>
	<path style="fill:#005ECE;" d="M262.047,289.249c0.182-0.211,0.363-0.424,0.548-0.633
		C262.41,288.825,262.229,289.038,262.047,289.249z"/>
	<path style="fill:#005ECE;" d="M257.858,294.625c0.233-0.333,0.468-0.665,0.708-0.994
		C258.327,293.959,258.092,294.291,257.858,294.625z"/>
	<path style="fill:#005ECE;" d="M254.296,300.297c0.25-0.446,0.505-0.889,0.765-1.329
		C254.801,299.408,254.546,299.85,254.296,300.297z"/>
	<path style="fill:#005ECE;" d="M255.739,297.832c0.415-0.672,0.84-1.336,1.278-1.991
		C256.579,296.496,256.154,297.161,255.739,297.832z"/>
	<path style="fill:#005ECE;" d="M259.506,292.365c0.207-0.27,0.42-0.535,0.63-0.802C259.926,291.83,259.712,292.095,259.506,292.365
		z"/>
	<path style="fill:#005ECE;" d="M90.285,262.5v40h119.934c4.427-14.961,12.049-28.562,22.085-40H90.285z"/>
	<path style="fill:#005ECE;" d="M400.495,392.496c-7.566,11.108-17.176,20.718-28.284,28.284l68.362,68.362l28.284-28.284
		L400.495,392.496z"/>
	<path style="fill:#46F8FF;" d="M365.687,292.892c-0.639-0.854-1.298-1.693-1.977-2.514c-12.213-14.792-30.685-24.236-51.321-24.236
		v133.066c36.686,0,66.533-29.847,66.533-66.533c0-11.464-2.915-22.261-8.042-31.687
		C369.342,298.159,367.604,295.454,365.687,292.892z"/>
	<path style="fill:#9BFBFF;" d="M312.389,266.142c-1.025,0-2.042,0.031-3.056,0.078c-0.205,0.009-0.41,0.017-0.615,0.028
		c-0.958,0.052-1.91,0.125-2.857,0.218c-0.234,0.023-0.468,0.05-0.702,0.076c-0.84,0.091-1.677,0.197-2.507,0.32
		c-0.234,0.035-0.468,0.069-0.701,0.106c-0.795,0.126-1.583,0.27-2.369,0.424c-0.347,0.068-0.695,0.136-1.04,0.21
		c-0.777,0.165-1.548,0.344-2.315,0.536c-0.421,0.106-0.838,0.22-1.255,0.333c-0.449,0.122-0.894,0.25-1.339,0.381
		c-0.757,0.223-1.508,0.46-2.253,0.709c-0.322,0.107-0.644,0.215-0.964,0.327c-0.537,0.189-1.072,0.381-1.602,0.584
		c-0.027,0.01-0.053,0.021-0.079,0.031c-1.141,0.436-2.266,0.904-3.375,1.4c-0.13,0.058-0.259,0.117-0.388,0.176
		c-1.093,0.497-2.171,1.02-3.232,1.573c-0.022,0.011-0.043,0.022-0.065,0.033c-0.654,0.342-1.301,0.694-1.942,1.057
		c-0.021,0.012-0.041,0.024-0.062,0.036c-1.9,1.078-3.742,2.247-5.52,3.501c-0.085,0.06-0.17,0.121-0.255,0.181
		c-1.698,1.208-3.336,2.495-4.911,3.854c-0.125,0.108-0.251,0.216-0.375,0.325c-1.503,1.316-2.944,2.7-4.323,4.143
		c-0.161,0.168-0.323,0.335-0.482,0.505c-0.41,0.438-0.814,0.881-1.212,1.33c-0.185,0.209-0.366,0.422-0.548,0.633
		c-0.654,0.757-1.29,1.529-1.91,2.314c-0.211,0.267-0.424,0.532-0.63,0.802c-0.319,0.417-0.63,0.84-0.94,1.265
		c-0.239,0.329-0.474,0.661-0.708,0.994c-0.283,0.404-0.568,0.806-0.842,1.216c-0.438,0.656-0.863,1.32-1.278,1.991
		c-0.232,0.375-0.454,0.756-0.678,1.135c-0.26,0.44-0.515,0.883-0.765,1.329c-0.205,0.367-0.411,0.733-0.609,1.104
		c-0.194,0.363-0.377,0.733-0.564,1.1c-0.196,0.384-0.402,0.763-0.591,1.152c-0.142,0.291-0.273,0.587-0.411,0.88
		c-0.27,0.575-0.533,1.153-0.786,1.737c-0.145,0.333-0.288,0.667-0.427,1.003c-0.29,0.7-0.57,1.406-0.836,2.117
		c-0.083,0.222-0.169,0.443-0.25,0.667c-0.295,0.814-0.572,1.637-0.836,2.466c-0.094,0.296-0.185,0.594-0.275,0.892
		c-0.217,0.717-0.423,1.44-0.617,2.167c-0.058,0.219-0.122,0.437-0.178,0.657c-0.235,0.923-0.45,1.854-0.646,2.792
		c-0.051,0.245-0.097,0.492-0.145,0.738c-0.151,0.766-0.289,1.536-0.414,2.311c-0.04,0.246-0.082,0.492-0.119,0.739
		c-0.145,0.974-0.272,1.954-0.375,2.941c-0.017,0.162-0.028,0.326-0.043,0.489c-0.082,0.854-0.147,1.712-0.196,2.575
		c-0.015,0.262-0.03,0.524-0.042,0.787c-0.044,0.958-0.071,1.92-0.073,2.889c0,0.058-0.004,0.116-0.004,0.174
		c0,0.957,0.032,1.906,0.072,2.854c0.041,0.863,0.098,1.722,0.168,2.577c0.123,1.51,0.28,3.01,0.503,4.49
		c0.049,0.324,0.109,0.644,0.163,0.967c0.117,0.705,0.238,1.408,0.377,2.105c0.078,0.392,0.165,0.781,0.25,1.17
		c0.135,0.62,0.276,1.237,0.428,1.851c0.103,0.416,0.211,0.83,0.322,1.243c0.156,0.579,0.321,1.155,0.492,1.728
		c0.126,0.423,0.252,0.846,0.387,1.266c0.178,0.556,0.369,1.106,0.561,1.656c0.147,0.421,0.29,0.844,0.445,1.261
		c0.206,0.553,0.429,1.098,0.649,1.644c0.278,0.687,0.565,1.369,0.864,2.045c0.255,0.574,0.507,1.15,0.777,1.716
		c0.247,0.517,0.512,1.024,0.772,1.534c0.189,0.371,0.374,0.745,0.57,1.112c0.281,0.527,0.575,1.045,0.87,1.563
		c0.19,0.334,0.379,0.667,0.574,0.997c0.316,0.533,0.64,1.06,0.97,1.583c0.185,0.294,0.373,0.587,0.563,0.878
		c0.354,0.543,0.714,1.082,1.083,1.614c0.168,0.242,0.341,0.48,0.512,0.72c0.406,0.568,0.814,1.134,1.237,1.688
		c0.094,0.124,0.193,0.244,0.288,0.367c1.592,2.056,3.297,4.02,5.113,5.876c0.47,0.48,0.95,0.948,1.433,1.414
		c3.178,3.057,6.659,5.8,10.39,8.185c0.136,0.087,0.271,0.175,0.407,0.261c0.62,0.39,1.248,0.767,1.881,1.137
		c0.22,0.128,0.44,0.255,0.661,0.381c0.599,0.34,1.202,0.674,1.812,0.996c0.264,0.139,0.53,0.273,0.796,0.408
		c0.594,0.304,1.189,0.605,1.793,0.891c0.277,0.131,0.56,0.253,0.84,0.38c1.05,0.48,2.116,0.93,3.194,1.356
		c0.402,0.159,0.8,0.326,1.206,0.477c0.452,0.168,0.911,0.319,1.367,0.478c0.51,0.177,1.018,0.355,1.534,0.52
		c0.44,0.141,0.884,0.27,1.328,0.402c0.547,0.162,1.096,0.321,1.65,0.469c0.427,0.115,0.856,0.224,1.287,0.331
		c0.592,0.146,1.188,0.283,1.786,0.413c0.403,0.088,0.807,0.177,1.213,0.257c0.673,0.133,1.351,0.251,2.03,0.364
		c0.34,0.056,0.678,0.12,1.019,0.171c1.456,0.218,2.932,0.374,4.418,0.496c0.874,0.072,1.752,0.129,2.633,0.172
		c0.943,0.04,1.889,0.072,2.842,0.072L312.389,266.142z"/>
	<path style="fill:#2488FF;" d="M400.495,392.496c11.623-17.065,18.427-37.663,18.427-59.822c0-23.14-7.42-44.577-20-62.067
		c-9.995-13.895-23.253-25.286-38.637-33.065c-14.408-7.285-30.678-11.402-47.896-11.402c-7.579,0-14.969,0.812-22.104,2.324
		c-4.843,1.026-9.568,2.373-14.145,4.034c-9.013,3.272-17.465,7.722-25.164,13.172c-6.868,4.862-13.135,10.517-18.672,16.828
		c-10.036,11.438-17.658,25.039-22.085,40c-2.816,9.518-4.343,19.584-4.36,30c0,0.058-0.003,0.116-0.003,0.174
		c0,14.074,2.75,27.516,7.731,39.826c1.112,2.747,2.332,5.44,3.661,8.068c17.566,34.753,53.614,58.639,95.141,58.639
		c17.22,0,33.488-4.123,47.896-11.409c4.133-2.09,8.122-4.427,11.926-7.018C383.319,413.214,392.929,403.605,400.495,392.496z
		 M312.389,399.208c-0.953,0-1.9-0.027-2.842-0.072c-0.882-0.042-1.76-0.1-2.633-0.172c-0.441-0.036-0.883-0.056-1.318-0.101
		c-1.041-0.106-2.073-0.241-3.099-0.395c-0.342-0.051-0.679-0.114-1.019-0.171c-0.68-0.113-1.358-0.23-2.03-0.364
		c-0.406-0.081-0.809-0.169-1.213-0.257c-0.598-0.13-1.194-0.267-1.786-0.413c-0.43-0.106-0.86-0.216-1.287-0.331
		c-0.553-0.149-1.102-0.307-1.65-0.469c-0.444-0.132-0.888-0.261-1.328-0.402c-0.515-0.165-1.024-0.343-1.534-0.52
		c-0.456-0.158-0.916-0.31-1.367-0.478c-0.406-0.151-0.804-0.318-1.206-0.477c-1.079-0.426-2.144-0.876-3.194-1.356
		c-0.279-0.128-0.562-0.249-0.84-0.38c-0.604-0.286-1.199-0.588-1.793-0.891c-0.266-0.136-0.533-0.269-0.796-0.408
		c-0.61-0.322-1.213-0.655-1.812-0.996c-0.221-0.126-0.442-0.252-0.661-0.381c-0.633-0.37-1.261-0.747-1.881-1.137
		c-0.137-0.086-0.271-0.174-0.407-0.261c-3.731-2.385-7.213-5.128-10.39-8.185c-0.179-0.171-0.336-0.315-0.487-0.464
		c-0.148-0.145-0.304-0.283-0.451-0.43s-0.284-0.303-0.43-0.451c-0.022-0.023-0.043-0.047-0.065-0.07
		c-1.816-1.856-3.522-3.819-5.113-5.876c-0.095-0.123-0.194-0.243-0.288-0.367c-0.423-0.555-0.831-1.121-1.237-1.688
		c-0.171-0.24-0.344-0.478-0.512-0.72c-0.37-0.532-0.729-1.071-1.083-1.614c-0.19-0.291-0.378-0.584-0.563-0.878
		c-0.33-0.523-0.654-1.05-0.97-1.583c-0.195-0.33-0.384-0.664-0.574-0.997c-0.295-0.518-0.589-1.037-0.87-1.563
		c-0.196-0.367-0.381-0.741-0.57-1.112c-0.26-0.51-0.525-1.017-0.772-1.534c-0.27-0.566-0.522-1.142-0.777-1.716
		c-0.3-0.676-0.587-1.357-0.864-2.045c-0.221-0.546-0.443-1.091-0.649-1.644c-0.156-0.417-0.298-0.84-0.445-1.261
		c-0.192-0.549-0.383-1.1-0.561-1.656c-0.135-0.42-0.26-0.843-0.387-1.266c-0.171-0.573-0.336-1.148-0.492-1.728
		c-0.111-0.413-0.219-0.827-0.322-1.243c-0.152-0.613-0.293-1.231-0.428-1.851c-0.085-0.39-0.172-0.778-0.25-1.17
		c-0.139-0.697-0.26-1.4-0.377-2.105c-0.053-0.323-0.114-0.643-0.163-0.967c-0.156-1.036-0.292-2.077-0.399-3.128
		c-0.044-0.435-0.064-0.878-0.1-1.315c-0.073-0.902-0.13-1.762-0.171-2.624c-0.045-0.946-0.073-1.896-0.073-2.854
		c0-0.058,0.003-0.116,0.003-0.175c0.003-0.968,0.031-1.93,0.075-2.889c0.012-0.263,0.027-0.525,0.042-0.787
		c0.049-0.863,0.114-1.721,0.196-2.575c0.016-0.163,0.027-0.327,0.043-0.489c0.102-0.987,0.229-1.967,0.375-2.941
		c0.037-0.247,0.079-0.493,0.119-0.739c0.125-0.775,0.263-1.546,0.414-2.311c0.049-0.246,0.094-0.493,0.145-0.738
		c0.196-0.938,0.41-1.869,0.646-2.792c0.056-0.22,0.12-0.438,0.178-0.657c0.194-0.727,0.399-1.45,0.617-2.167
		c0.09-0.298,0.181-0.596,0.275-0.892c0.264-0.828,0.54-1.651,0.836-2.466c0.081-0.223,0.167-0.444,0.25-0.667
		c0.267-0.712,0.546-1.417,0.836-2.117c0.139-0.336,0.282-0.67,0.427-1.003c0.254-0.584,0.517-1.162,0.786-1.737
		c0.138-0.293,0.269-0.589,0.411-0.88c0.189-0.388,0.389-0.769,0.585-1.152c0.188-0.368,0.375-0.736,0.57-1.1
		c0.198-0.371,0.404-0.737,0.609-1.104c0.25-0.446,0.505-0.889,0.765-1.329c0.224-0.38,0.446-0.761,0.678-1.135
		c0.415-0.672,0.84-1.336,1.278-1.991c0.274-0.41,0.559-0.813,0.842-1.216c0.233-0.333,0.468-0.665,0.708-0.994
		c0.309-0.425,0.621-0.848,0.94-1.265c0.207-0.27,0.42-0.535,0.63-0.802c0.62-0.786,1.256-1.558,1.91-2.314
		c0.183-0.211,0.363-0.424,0.548-0.633c0.398-0.449,0.802-0.892,1.212-1.33c0.159-0.17,0.321-0.337,0.482-0.505
		c1.379-1.444,2.82-2.828,4.323-4.143c0.124-0.109,0.25-0.217,0.375-0.325c1.575-1.358,3.213-2.645,4.911-3.854
		c0.085-0.06,0.169-0.121,0.255-0.181c1.778-1.253,3.62-2.423,5.52-3.501c0.021-0.012,0.041-0.024,0.062-0.036
		c0.641-0.363,1.288-0.715,1.942-1.057c0.031-0.016,0.048-0.025,0.065-0.033c1.061-0.553,2.139-1.076,3.232-1.573
		c0.129-0.059,0.258-0.118,0.388-0.176c1.11-0.496,2.235-0.964,3.375-1.4c0.027-0.01,0.053-0.021,0.079-0.031
		c0.53-0.202,1.065-0.395,1.602-0.584c0.32-0.112,0.642-0.219,0.964-0.327c0.745-0.249,1.496-0.486,2.253-0.709
		c0.445-0.131,0.891-0.259,1.339-0.381c0.417-0.114,0.835-0.228,1.255-0.333c0.766-0.193,1.539-0.37,2.315-0.536
		c0.345-0.074,0.693-0.142,1.04-0.21c0.785-0.154,1.574-0.298,2.369-0.424c0.233-0.037,0.467-0.071,0.701-0.106
		c0.831-0.123,1.667-0.228,2.507-0.32c0.234-0.026,0.467-0.053,0.702-0.076c0.947-0.093,1.899-0.165,2.857-0.218
		c0.204-0.011,0.41-0.019,0.615-0.028c1.013-0.046,2.031-0.078,3.055-0.078c20.637,0,39.108,9.444,51.321,24.236
		c0.679,0.822,1.338,1.66,1.977,2.514c1.917,2.562,3.655,5.267,5.193,8.095c5.127,9.426,8.042,20.223,8.042,31.687
		C378.922,369.361,349.075,399.207,312.389,399.208z"/>
</g>
<g>
</g>
<g>
</g>
<g>
</g>
<g>
</g>
<g>
</g>
<g>
</g>
<g>
</g>
<g>
</g>
<g>
</g>
<g>
</g>
<g>
</g>
<g>
</g>
<g>
</g>
<g>
</g>
<g>
</g>
</svg>
